<svg width="400" height="400" viewBox="0 0 400 400" fill="none" xmlns="http://www.w3.org/2000/svg">
<g clip-path="url(#clip0_8_370)">
<path d="M18.1844 244.719C15.1946 268.851 21.1732 293.06 34.899 312.401C48.6248 331.742 69.0621 344.757 92.0366 348.786C115.011 352.815 138.789 347.555 158.514 334.08C178.239 320.605 192.422 299.932 198.167 276.283L164.746 268.239C161.16 283.003 152.305 295.91 139.99 304.323C127.675 312.736 112.83 316.02 98.4862 313.504C84.1425 310.989 71.3829 302.864 62.8135 290.788C54.2441 278.713 50.5115 263.599 52.3781 248.532L18.1844 244.719Z" fill="#7E0037"/>
<path d="M381.816 155.281C384.805 131.149 378.827 106.94 365.101 87.599C351.375 68.2576 330.938 55.2432 307.963 51.2141C284.989 47.185 261.211 52.4452 241.486 65.9203C221.761 79.3953 207.578 100.068 201.833 123.717L235.254 131.761C238.84 116.997 247.695 104.09 260.01 95.677C272.325 87.2641 287.17 83.98 301.514 86.4955C315.857 89.011 328.617 97.1363 337.187 109.212C345.756 121.287 349.489 136.401 347.622 151.468L381.816 155.281Z" fill="#7E0037"/>
<path d="M155.281 18.1844C131.149 15.1946 106.94 21.1732 87.599 34.899C68.2576 48.6248 55.2432 69.0621 51.2141 92.0366C47.185 115.011 52.4452 138.789 65.9203 158.514C79.3953 178.239 100.068 192.422 123.717 198.167L131.761 164.746C116.997 161.16 104.09 152.305 95.677 139.99C87.2641 127.675 83.98 112.83 86.4955 98.4862C89.011 84.1425 97.1363 71.3829 109.212 62.8135C121.287 54.2441 136.401 50.5115 151.468 52.3781L155.281 18.1844Z" fill="#7E0037"/>
<path d="M244.719 381.816C268.851 384.805 293.06 378.827 312.401 365.101C331.742 351.375 344.757 330.938 348.786 307.963C352.815 284.989 347.555 261.211 334.08 241.486C320.605 221.761 299.932 207.578 276.283 201.833L268.239 235.254C283.003 238.84 295.91 247.695 304.323 260.01C312.736 272.325 316.02 287.17 313.504 301.514C310.989 315.857 302.864 328.617 290.788 337.187C278.713 345.756 263.599 349.489 248.532 347.622L244.719 381.816Z" fill="#7E0037"/>
<ellipse cx="197.5" cy="200" rx="95.5" ry="96" fill="#B70552"/>
<ellipse cx="197.5" cy="200" rx="64.5" ry="64" fill="#FF3C3C"/>
<circle cx="197.5" cy="162.5" r="14.5" fill="white"/>
</g>
<defs>
<clipPath id="clip0_8_370">
<rect width="400" height="400" fill="white"/>
</clipPath>
</defs>
</svg>
