<svg width="400" height="400" viewBox="0 0 400 400" fill="none" xmlns="http://www.w3.org/2000/svg">
<g clip-path="url(#clip0_8_388)">
<path d="M20.1837 147.82C5.52858 167.224 -1.39834 191.179 0.817855 214.792C3.03405 238.405 14.2261 259.894 32.108 274.871C49.9899 289.847 73.2124 297.181 97.0321 295.373C120.852 293.566 143.471 282.754 160.271 265.146L135.35 241.47C124.862 252.463 110.74 259.213 95.8683 260.341C80.9969 261.47 66.4984 256.891 55.3342 247.541C44.1701 238.191 37.1825 224.774 35.7989 210.032C34.4152 195.289 38.7399 180.334 47.8896 168.219L20.1837 147.82Z" fill="#7E0037"/>
<path d="M379.816 252.18C394.471 232.776 401.398 208.821 399.182 185.208C396.966 161.595 385.774 140.106 367.892 125.129C350.01 110.153 326.788 102.819 302.968 104.627C279.148 106.434 256.529 117.246 239.729 134.854L264.65 158.53C275.138 147.537 289.26 140.787 304.132 139.659C319.003 138.53 333.502 143.109 344.666 152.459C355.83 161.809 362.817 175.226 364.201 189.968C365.585 204.711 361.26 219.666 352.11 231.781L379.816 252.18Z" fill="#7E0037"/>
<path d="M252.18 20.1837C232.776 5.52852 208.821 -1.3984 185.208 0.817795C161.595 3.03399 140.106 14.2261 125.129 32.108C110.153 49.9899 102.819 73.2124 104.627 97.0321C106.434 120.852 117.246 143.471 134.854 160.271L158.53 135.35C147.537 124.862 140.787 110.74 139.659 95.8682C138.53 80.9969 143.109 66.4984 152.459 55.3342C161.809 44.17 175.226 37.1825 189.968 35.7988C204.711 34.4152 219.666 38.7399 231.781 47.8895L252.18 20.1837Z" fill="#7E0037"/>
<path d="M147.82 379.816C167.224 394.471 191.179 401.398 214.792 399.182C238.405 396.966 259.894 385.774 274.871 367.892C289.847 350.01 297.181 326.788 295.373 302.968C293.566 279.148 282.754 256.529 265.146 239.729L241.47 264.65C252.463 275.138 259.213 289.26 260.341 304.132C261.47 319.003 256.891 333.502 247.541 344.666C238.191 355.83 224.774 362.817 210.032 364.201C195.289 365.585 180.334 361.26 168.219 352.11L147.82 379.816Z" fill="#7E0037"/>
<ellipse cx="197.5" cy="200" rx="95.5" ry="96" fill="#B70552"/>
<ellipse cx="197.5" cy="200" rx="64.5" ry="64" fill="#FF3C3C"/>
<circle cx="197.5" cy="162.5" r="14.5" fill="white"/>
</g>
<defs>
<clipPath id="clip0_8_388">
<rect width="400" height="400" fill="white"/>
</clipPath>
</defs>
</svg>
