<svg width="400" height="400" viewBox="0 0 400 400" fill="none" xmlns="http://www.w3.org/2000/svg">
<g clip-path="url(#clip0_8_397)">
<path d="M39.816 103.058C20.6381 118.008 7.74725 139.353 3.77642 162.735C-0.194409 186.117 5.05442 209.771 18.4508 228.866C31.8472 247.96 52.3803 261.054 75.8562 265.474C99.332 269.893 123.979 265.304 144.763 252.644L126.82 223.324C113.844 231.228 98.4556 234.093 83.7989 231.334C69.1423 228.575 56.3228 220.4 47.9591 208.479C39.5953 196.557 36.3183 181.79 38.7974 167.192C41.2765 152.593 49.3247 139.267 61.298 129.933L39.816 103.058Z" fill="#7E0037"/>
<path d="M360.184 296.942C379.362 281.992 392.253 260.647 396.223 237.265C400.194 213.882 394.945 190.229 381.549 171.134C368.153 152.04 347.62 138.946 324.144 134.526C300.668 130.107 276.021 134.696 255.236 147.356L273.18 176.676C286.156 168.772 301.544 165.907 316.201 168.666C330.858 171.425 343.677 179.6 352.041 191.521C360.405 203.442 363.682 218.21 361.202 232.808C358.723 247.407 350.675 260.733 338.702 270.067L360.184 296.942Z" fill="#7E0037"/>
<path d="M296.942 39.816C281.992 20.6381 260.647 7.74725 237.265 3.77642C213.882 -0.194407 190.229 5.05443 171.134 18.4508C152.04 31.8472 138.946 52.3803 134.526 75.8562C130.107 99.332 134.696 123.979 147.356 144.763L176.676 126.82C168.772 113.844 165.907 98.4556 168.666 83.7989C171.425 69.1423 179.6 56.3228 191.521 47.9591C203.442 39.5953 218.21 36.3183 232.808 38.7974C247.407 41.2765 260.733 49.3247 270.067 61.298L296.942 39.816Z" fill="#7E0037"/>
<path d="M103.058 360.184C118.008 379.362 139.353 392.253 162.735 396.224C186.118 400.194 209.771 394.946 228.866 381.549C247.96 368.153 261.054 347.62 265.474 324.144C269.893 300.668 265.304 276.021 252.644 255.237L223.324 273.18C231.228 286.156 234.093 301.544 231.334 316.201C228.575 330.858 220.4 343.677 208.479 352.041C196.558 360.405 181.79 363.682 167.192 361.203C152.593 358.723 139.267 350.675 129.933 338.702L103.058 360.184Z" fill="#7E0037"/>
<ellipse cx="197.5" cy="200" rx="95.5" ry="96" fill="#B70552"/>
<ellipse cx="197.5" cy="200" rx="64.5" ry="64" fill="#FF3C3C"/>
<circle cx="197.5" cy="162.5" r="14.5" fill="white"/>
</g>
<defs>
<clipPath id="clip0_8_397">
<rect width="400" height="400" fill="white"/>
</clipPath>
</defs>
</svg>
