<svg width="400" height="400" viewBox="0 0 400 400" fill="none" xmlns="http://www.w3.org/2000/svg">
<g clip-path="url(#clip0_8_379)">
<path d="M12.8056 196.138C3.67185 218.673 3.18095 243.605 11.4331 265.84C19.6853 288.075 36.0579 305.935 57.2067 315.773C78.3555 325.611 102.685 326.684 125.225 318.774C147.765 310.863 166.816 294.565 178.486 273.209L148.286 256.789C141 270.122 129.106 280.298 115.034 285.237C100.961 290.175 85.7719 289.505 72.5681 283.363C59.3642 277.221 49.1423 266.07 43.9903 252.188C38.8382 238.306 39.1447 222.741 44.8471 208.671L12.8056 196.138Z" fill="#7E0037"/>
<path d="M387.194 203.862C396.328 181.327 396.819 156.395 388.567 134.16C380.315 111.925 363.942 94.0649 342.793 84.2268C321.644 74.3888 297.315 73.3155 274.775 81.2263C252.235 89.137 233.184 105.435 221.514 126.791L251.714 143.211C259 129.878 270.894 119.702 284.966 114.763C299.039 109.825 314.228 110.495 327.432 116.637C340.636 122.779 350.858 133.93 356.01 147.812C361.162 161.694 360.855 177.259 355.153 191.329L387.194 203.862Z" fill="#7E0037"/>
<path d="M203.862 12.8055C181.327 3.67184 156.395 3.18094 134.16 11.4331C111.925 19.6853 94.0649 36.0579 84.2269 57.2067C74.3888 78.3555 73.3156 102.685 81.2263 125.225C89.1371 147.765 105.435 166.816 126.791 178.486L143.211 148.286C129.878 141 119.702 129.106 114.763 115.034C109.825 100.961 110.495 85.7719 116.637 72.5681C122.779 59.3642 133.93 49.1423 147.812 43.9903C161.694 38.8382 177.259 39.1447 191.329 44.8471L203.862 12.8055Z" fill="#7E0037"/>
<path d="M196.138 387.194C218.673 396.328 243.605 396.819 265.84 388.567C288.075 380.315 305.935 363.942 315.773 342.793C325.611 321.644 326.684 297.315 318.774 274.775C310.863 252.235 294.565 233.184 273.209 221.514L256.789 251.714C270.122 259 280.298 270.894 285.237 284.966C290.175 299.039 289.505 314.228 283.363 327.432C277.221 340.636 266.07 350.858 252.188 356.01C238.306 361.162 222.741 360.855 208.671 355.153L196.138 387.194Z" fill="#7E0037"/>
<ellipse cx="197.5" cy="200" rx="95.5" ry="96" fill="#B70552"/>
<ellipse cx="197.5" cy="200" rx="64.5" ry="64" fill="#FF3C3C"/>
<circle cx="197.5" cy="162.5" r="14.5" fill="white"/>
</g>
<defs>
<clipPath id="clip0_8_379">
<rect width="400" height="400" fill="white"/>
</clipPath>
</defs>
</svg>
