<svg width="400" height="400" viewBox="0 0 400 400" fill="none" xmlns="http://www.w3.org/2000/svg">
<g clip-path="url(#clip0_8_406)">
<path d="M70.3646 64.9025C47.971 74.3791 29.9946 91.6612 20.1074 113.219C10.2201 134.776 9.16802 158.983 17.1659 180.894C25.1639 202.805 41.6083 220.767 63.1405 231.112C84.6726 241.456 109.668 243.403 133.02 236.554L123.277 203.589C108.697 207.865 93.0917 206.65 79.6486 200.191C66.2054 193.733 55.9387 182.518 50.9453 168.839C45.952 155.159 46.6089 140.046 52.7818 126.587C58.9547 113.128 70.1778 102.338 84.1588 96.4219L70.3646 64.9025Z" fill="#7E0037"/>
<path d="M329.635 335.098C352.029 325.621 370.005 308.339 379.892 286.781C389.78 265.224 390.832 241.017 382.834 219.106C374.836 197.195 358.392 179.233 336.859 168.888C315.327 158.543 290.332 156.597 266.979 163.446L276.723 196.411C291.303 192.135 306.908 193.35 320.351 199.809C333.794 206.267 344.061 217.482 349.055 231.161C354.048 244.841 353.391 259.954 347.218 273.413C341.045 286.872 329.822 297.662 315.841 303.578L329.635 335.098Z" fill="#7E0037"/>
<path d="M335.098 70.3646C325.621 47.971 308.339 29.9946 286.781 20.1074C265.224 10.2201 241.017 9.16802 219.106 17.1659C197.195 25.1639 179.233 41.6083 168.888 63.1405C158.543 84.6726 156.597 109.668 163.446 133.02L196.411 123.277C192.135 108.697 193.35 93.0917 199.809 79.6486C206.267 66.2054 217.482 55.9387 231.161 50.9453C244.841 45.952 259.954 46.6089 273.413 52.7818C286.872 58.9547 297.662 70.1778 303.578 84.1588L335.098 70.3646Z" fill="#7E0037"/>
<path d="M64.9025 329.635C74.3791 352.029 91.6612 370.005 113.219 379.893C134.776 389.78 158.983 390.832 180.894 382.834C202.805 374.836 220.767 358.392 231.112 336.86C241.457 315.327 243.403 290.332 236.554 266.98L203.589 276.723C207.865 291.303 206.65 306.908 200.191 320.351C193.733 333.795 182.518 344.061 168.839 349.055C155.159 354.048 140.046 353.391 126.587 347.218C113.128 341.045 102.338 329.822 96.4219 315.841L64.9025 329.635Z" fill="#7E0037"/>
<ellipse cx="197.5" cy="200" rx="95.5" ry="96" fill="#B70552"/>
<ellipse cx="197.5" cy="200" rx="64.5" ry="64" fill="#FF3C3C"/>
<circle cx="197.5" cy="162.5" r="14.5" fill="white"/>
</g>
<defs>
<clipPath id="clip0_8_406">
<rect width="400" height="400" fill="white"/>
</clipPath>
</defs>
</svg>
