<svg width="400" height="400" viewBox="0 0 400 400" fill="none" xmlns="http://www.w3.org/2000/svg">
<path d="M109.748 35.9537C85.6643 39.3115 63.8276 51.3521 48.6977 69.6162C33.5678 87.8802 26.2865 110.99 28.3409 134.224C30.3953 157.458 41.6304 179.065 59.7515 194.63C77.8726 210.195 101.512 218.544 125.842 217.972L124.962 183.609C109.772 183.966 95.0135 178.753 83.7 169.035C72.3864 159.318 65.372 145.828 64.0894 131.322C62.8068 116.816 67.3527 102.389 76.7987 90.9858C86.2447 79.583 99.8781 72.0657 114.914 69.9693L109.748 35.9537Z" fill="#7E0037"/>
<path d="M290.252 364.046C314.336 360.688 336.172 348.648 351.302 330.384C366.432 312.12 373.714 289.01 371.659 265.776C369.605 242.542 358.37 220.935 340.248 205.37C322.127 189.805 298.488 181.456 274.158 182.028L275.038 216.391C290.228 216.034 304.987 221.247 316.3 230.965C327.614 240.682 334.628 254.172 335.911 268.678C337.193 283.184 332.647 297.611 323.201 309.014C313.755 320.417 300.122 327.934 285.086 330.031L290.252 364.046Z" fill="#7E0037"/>
<path d="M364.046 109.748C360.688 85.6643 348.648 63.8276 330.384 48.6977C312.12 33.5678 289.01 26.2865 265.776 28.3409C242.542 30.3953 220.935 41.6304 205.37 59.7515C189.805 77.8726 181.456 101.512 182.028 125.842L216.391 124.962C216.034 109.772 221.247 95.0134 230.965 83.6999C240.682 72.3864 254.172 65.372 268.678 64.0894C283.184 62.8068 297.611 67.3527 309.014 76.7987C320.417 86.2447 327.934 99.8781 330.031 114.914L364.046 109.748Z" fill="#7E0037"/>
<path d="M35.9537 290.252C39.3115 314.336 51.3521 336.172 69.6162 351.302C87.8802 366.432 110.99 373.714 134.224 371.659C157.458 369.605 179.065 358.37 194.63 340.249C210.195 322.127 218.544 298.488 217.972 274.158L183.609 275.038C183.966 290.228 178.753 304.987 169.035 316.3C159.318 327.614 145.828 334.628 131.322 335.911C116.816 337.193 102.389 332.647 90.9858 323.201C79.583 313.755 72.0657 300.122 69.9693 285.086L35.9537 290.252Z" fill="#7E0037"/>
<ellipse cx="197.5" cy="200" rx="95.5" ry="96" fill="#B70552"/>
<ellipse cx="197.5" cy="200" rx="64.5" ry="64" fill="#FF3C3C"/>
<circle cx="197.5" cy="162.5" r="14.5" fill="white"/>
</svg>
